<svg width="150" height="34" viewBox="0 0 150 34" fill="none" xmlns="http://www.w3.org/2000/svg">
<g clip-path="url(#clip0_1_10926)">
<path d="M88.5795 28.0295C86.964 28.0295 85.5375 27.9012 84.3008 27.6445C83.0846 27.4075 82.0574 27.0028 81.2199 26.4302C80.4015 25.8576 79.7736 25.1173 79.3346 24.209C78.9162 23.281 78.6964 22.1457 78.6765 20.8031H82.9846C83.0243 21.5731 83.1743 22.2148 83.4331 22.7282C83.6927 23.2218 84.0618 23.6167 84.5405 23.9128C85.0192 24.1892 85.5875 24.3867 86.2456 24.5051C86.9236 24.6039 87.692 24.6532 88.5493 24.6532C89.6464 24.6532 90.5442 24.594 91.242 24.4756C91.9603 24.3373 92.5184 24.1498 92.9177 23.9128C93.3162 23.6759 93.5956 23.3896 93.7552 23.0539C93.9148 22.6986 93.9942 22.2938 93.9942 21.8397C93.9942 21.4053 93.9045 21.05 93.725 20.7735C93.5655 20.4971 93.3361 20.2799 93.0368 20.122C92.7581 19.9443 92.4192 19.8061 92.0199 19.7073C91.6412 19.6087 91.2221 19.5198 90.7633 19.4408L84.6302 18.2562C82.7949 17.9008 81.439 17.2689 80.5611 16.3608C79.7037 15.4525 79.275 14.2185 79.275 12.6587C79.275 11.8295 79.4346 11.0595 79.7537 10.3487C80.0728 9.61814 80.5912 8.98637 81.3096 8.45329C82.0471 7.9202 83.0045 7.49571 84.1817 7.17979C85.378 6.86389 86.8442 6.70593 88.5795 6.70593C90.0949 6.70593 91.4214 6.8244 92.5581 7.06132C93.7155 7.29826 94.6824 7.69314 95.4603 8.24593C96.2581 8.77902 96.867 9.49968 97.2853 10.4079C97.7243 11.3162 97.9736 12.4317 98.0331 13.7545H93.9346C93.875 12.9845 93.7155 12.3626 93.4559 11.8887C93.1964 11.4149 92.8375 11.0496 92.3787 10.7929C91.9398 10.5165 91.4015 10.3289 90.7633 10.2303C90.1449 10.1315 89.4273 10.0822 88.6096 10.0822C87.5125 10.0822 86.625 10.1512 85.9464 10.2895C85.2684 10.4277 84.7398 10.6153 84.3611 10.8522C83.9817 11.0891 83.7228 11.3655 83.5831 11.6814C83.4434 11.9776 83.3736 12.2836 83.3736 12.5995C83.3736 13.2313 83.5831 13.7348 84.0022 14.1099C84.4206 14.4653 85.1287 14.7319 86.1258 14.9095L92.05 16.0053C93.067 16.1831 93.9545 16.4101 94.7125 16.6865C95.4706 16.9629 96.0986 17.3184 96.5971 17.7527C97.1162 18.1871 97.5052 18.7202 97.764 19.352C98.0236 19.9838 98.153 20.7538 98.153 21.662C98.153 22.6689 97.9934 23.5673 97.6743 24.3571C97.375 25.1271 96.8567 25.7885 96.1184 26.3414C95.3809 26.8942 94.3934 27.3088 93.1567 27.5852C91.9398 27.8814 90.414 28.0295 88.5795 28.0295Z" fill="#280609"/>
<path d="M115.917 22.1359C115.797 23.2415 115.548 24.1794 115.169 24.9494C114.79 25.6997 114.281 26.3019 113.643 26.756C113.004 27.2101 112.237 27.5359 111.339 27.7333C110.462 27.9307 109.474 28.0295 108.377 28.0295C107.081 28.0295 105.944 27.9012 104.967 27.6445C103.99 27.3878 103.162 26.9633 102.484 26.3709C101.805 25.7589 101.297 24.9593 100.958 23.9721C100.618 22.9849 100.449 21.7509 100.449 20.2701C100.449 18.7498 100.618 17.4862 100.958 16.4793C101.297 15.4526 101.805 14.6332 102.484 14.0211C103.162 13.409 103.99 12.9747 104.967 12.718C105.944 12.4613 107.081 12.333 108.377 12.333C109.474 12.333 110.451 12.4317 111.31 12.6292C112.187 12.8068 112.945 13.1228 113.583 13.5768C114.221 14.0112 114.73 14.6035 115.109 15.3538C115.488 16.0843 115.737 16.9926 115.857 18.0785H112.087C111.908 16.9926 111.479 16.2621 110.801 15.8869C110.143 15.4921 109.335 15.2946 108.377 15.2946C107.719 15.2946 107.131 15.3736 106.612 15.5315C106.093 15.6697 105.655 15.9264 105.296 16.3015C104.937 16.6569 104.668 17.1604 104.488 17.812C104.309 18.4437 104.219 19.2632 104.219 20.2701C104.219 21.2178 104.309 22.0076 104.488 22.6393C104.668 23.2515 104.937 23.745 105.296 24.1201C105.655 24.4756 106.093 24.7223 106.612 24.8606C107.131 24.9987 107.719 25.0679 108.377 25.0679C109.395 25.0679 110.232 24.8704 110.89 24.4756C111.568 24.0609 111.987 23.281 112.147 22.1359H115.917Z" fill="#280609"/>
<path d="M123.068 28.0295C121.472 28.0295 120.175 27.6445 119.178 26.8745C118.201 26.1044 117.712 24.9297 117.712 23.3501C117.712 22.7776 117.801 22.2248 117.982 21.6917C118.181 21.1388 118.5 20.6551 118.939 20.2404C119.398 19.8061 120.006 19.4606 120.764 19.2039C121.542 18.9472 122.519 18.8189 123.695 18.8189C124.294 18.8189 124.812 18.8287 125.251 18.8485C125.71 18.8485 126.129 18.8584 126.508 18.8782C126.907 18.8979 127.286 18.9176 127.645 18.9373C128.004 18.9571 128.393 18.9768 128.812 18.9966V17.812C128.812 16.9234 128.543 16.2818 128.004 15.8869C127.485 15.4921 126.618 15.2946 125.401 15.2946C124.324 15.2946 123.506 15.4526 122.948 15.7685C122.389 16.0843 122.04 16.726 121.901 17.6935H118.19C118.29 16.6865 118.509 15.8376 118.849 15.1465C119.208 14.4555 119.687 13.9026 120.285 13.488C120.883 13.0734 121.611 12.7772 122.469 12.5996C123.346 12.4218 124.344 12.333 125.461 12.333C127.715 12.333 129.459 12.7575 130.696 13.6065C131.953 14.4555 132.581 15.8474 132.581 17.7823V27.5852H128.812V24.9494H128.423C128.043 25.9959 127.376 26.7757 126.418 27.2891C125.461 27.7826 124.344 28.0295 123.068 28.0295ZM124.712 25.1863C125.212 25.1863 125.71 25.1468 126.209 25.0679C126.707 24.9692 127.146 24.8013 127.525 24.5644C127.904 24.3275 128.213 24.0115 128.453 23.6167C128.692 23.2218 128.812 22.7184 128.812 22.1062V21.1586C128.113 21.1191 127.455 21.0895 126.837 21.0697C126.239 21.05 125.69 21.0401 125.191 21.0401C124.393 21.0401 123.755 21.0993 123.276 21.2178C122.798 21.3362 122.429 21.4942 122.17 21.6917C121.93 21.8693 121.77 22.0865 121.691 22.3432C121.611 22.5998 121.571 22.8565 121.571 23.1132C121.571 23.8832 121.831 24.4262 122.349 24.7421C122.868 25.0382 123.656 25.1863 124.712 25.1863Z" fill="#280609"/>
<path d="M146.23 17.7527C146.23 16.7458 145.931 16.0843 145.333 15.7684C144.754 15.4526 143.897 15.2946 142.76 15.2946C141.663 15.2946 140.805 15.5118 140.187 15.9462C139.568 16.3805 139.24 17.0715 139.2 18.0193V27.5852H135.43V12.7772H139.2V15.5315H139.588C139.928 14.4654 140.506 13.6657 141.324 13.1326C142.162 12.5996 143.189 12.333 144.405 12.333C145.243 12.333 146.001 12.412 146.679 12.5699C147.377 12.7279 147.965 13.0043 148.444 13.3992C148.943 13.7743 149.322 14.2876 149.581 14.9392C149.86 15.5907 150 16.4101 150 17.3973V27.5852H146.23V17.7527Z" fill="#280609"/>
<path d="M5.14709 5.97058H6.51896V7.33396H5.14709V5.97058Z" fill="#280609"/>
<path d="M6.51892 5.97058H7.8908V7.33396H6.51892V5.97058Z" fill="#280609"/>
<path d="M7.89087 5.97058H9.26271V7.33396H7.89087V5.97058Z" fill="#280609"/>
<path d="M9.2627 5.97058H10.6346V7.33396H9.2627V5.97058Z" fill="#280609"/>
<path d="M10.6345 5.97058H12.0064V7.33396H10.6345V5.97058Z" fill="#280609"/>
<path d="M12.0063 5.97058H13.3782V7.33396H12.0063V5.97058Z" fill="#280609"/>
<path d="M13.3783 5.97058H14.7502V7.33396H13.3783V5.97058Z" fill="#280609"/>
<path d="M14.7501 5.97058H16.122V7.33396H14.7501V5.97058Z" fill="#280609"/>
<path d="M16.1219 5.97058H17.4939V7.33396H16.1219V5.97058Z" fill="#280609"/>
<path d="M67.9432 5.97058H69.3151V7.33396H67.9432V5.97058Z" fill="#280609"/>
<path d="M69.3151 5.97058H70.687V7.33396H69.3151V5.97058Z" fill="#280609"/>
<path d="M70.687 5.97058H72.0588V7.33396H70.687V5.97058Z" fill="#280609"/>
<path d="M5.14709 7.33398H6.51896V8.69737H5.14709V7.33398Z" fill="#280609"/>
<path d="M6.51892 7.33398H7.8908V8.69737H6.51892V7.33398Z" fill="#280609"/>
<path d="M7.89087 7.33398H9.26271V8.69737H7.89087V7.33398Z" fill="#280609"/>
<path d="M9.2627 7.33398H10.6346V8.69737H9.2627V7.33398Z" fill="#280609"/>
<path d="M10.6345 7.33398H12.0064V8.69737H10.6345V7.33398Z" fill="#280609"/>
<path d="M12.0063 7.33398H13.3782V8.69737H12.0063V7.33398Z" fill="#280609"/>
<path d="M13.3783 7.33398H14.7502V8.69737H13.3783V7.33398Z" fill="#280609"/>
<path d="M14.7501 7.33398H16.122V8.69737H14.7501V7.33398Z" fill="#280609"/>
<path d="M16.1219 7.33398H17.4939V8.69737H16.1219V7.33398Z" fill="#280609"/>
<path d="M17.4939 7.33399L18.8657 7.33398V8.69738H17.4939V7.33399Z" fill="#280609"/>
<path d="M18.8657 7.33398H20.2376V8.69738H18.8657V7.33398Z" fill="#280609"/>
<path d="M20.2375 7.33398H21.6095V8.69738H20.2375V7.33398Z" fill="#280609"/>
<path d="M67.9432 7.33398H69.3151V8.69737H67.9432V7.33398Z" fill="#280609"/>
<path d="M69.3151 7.33398H70.687V8.69737H69.3151V7.33398Z" fill="#280609"/>
<path d="M70.687 7.33398H72.0588V8.69737H70.687V7.33398Z" fill="#280609"/>
<path d="M5.14709 8.69739H6.51896V10.0608H5.14709V8.69739Z" fill="#280609"/>
<path d="M6.51892 8.69739H7.8908V10.0608H6.51892V8.69739Z" fill="#280609"/>
<path d="M7.89087 8.69739H9.26271V10.0608H7.89087V8.69739Z" fill="#280609"/>
<path d="M9.2627 8.69739H10.6346V10.0608H9.2627V8.69739Z" fill="#280609"/>
<path d="M10.6345 8.69739H12.0064V10.0608H10.6345V8.69739Z" fill="#280609"/>
<path d="M12.0063 8.69739H13.3782V10.0608H12.0063V8.69739Z" fill="#280609"/>
<path d="M13.3783 8.69739H14.7502V10.0608H13.3783V8.69739Z" fill="#280609"/>
<path d="M14.7501 8.69739H16.122V10.0608H14.7501V8.69739Z" fill="#280609"/>
<path d="M16.1219 8.69739H17.4939V10.0608H16.1219V8.69739Z" fill="#280609"/>
<path d="M17.4939 8.69739H18.8657V10.0608H17.4939V8.69739Z" fill="#280609"/>
<path d="M18.8657 8.69739H20.2376V10.0608H18.8657V8.69739Z" fill="#280609"/>
<path d="M20.2375 8.69739H21.6095V10.0608H20.2375V8.69739Z" fill="#280609"/>
<path d="M21.6095 8.69739H22.9813V10.0608H21.6095V8.69739Z" fill="#280609"/>
<path d="M67.9432 8.69739H69.3151V10.0608H67.9432V8.69739Z" fill="#280609"/>
<path d="M69.3151 8.69739H70.687V10.0608H69.3151V8.69739Z" fill="#280609"/>
<path d="M70.687 8.69739H72.0588V10.0608H70.687V8.69739Z" fill="#280609"/>
<path d="M5.14709 10.0608H6.51896V11.4241H5.14709V10.0608Z" fill="#280609"/>
<path d="M6.51892 10.0608H7.8908V11.4241H6.51892V10.0608Z" fill="#280609"/>
<path d="M7.89087 10.0608H9.26271V11.4241H7.89087V10.0608Z" fill="#280609"/>
<path d="M9.2627 10.0608H10.6346V11.4241H9.2627V10.0608Z" fill="#280609"/>
<path d="M18.8657 10.0608H20.2376V11.4241H18.8657V10.0608Z" fill="#280609"/>
<path d="M20.2375 10.0608H21.6095V11.4241H20.2375V10.0608Z" fill="#280609"/>
<path d="M21.6095 10.0608H22.9813V11.4241H21.6095V10.0608Z" fill="#280609"/>
<path d="M22.9813 10.0608H24.3532V11.4241H22.9813V10.0608Z" fill="#280609"/>
<path d="M67.9432 10.0608H69.3151V11.4241H67.9432V10.0608Z" fill="#280609"/>
<path d="M69.3151 10.0608H70.687V11.4241H69.3151V10.0608Z" fill="#280609"/>
<path d="M70.687 10.0608H72.0588V11.4241H70.687V10.0608Z" fill="#280609"/>
<path d="M5.14709 11.4241H6.51896V12.7875H5.14709V11.4241Z" fill="#280609"/>
<path d="M6.51892 11.4241H7.8908V12.7875H6.51892V11.4241Z" fill="#280609"/>
<path d="M7.89087 11.4241H9.26271V12.7875H7.89087V11.4241Z" fill="#280609"/>
<path d="M9.2627 11.4241H10.6346V12.7875H9.2627V11.4241Z" fill="#280609"/>
<path d="M20.2375 11.4241H21.6095V12.7875H20.2375V11.4241Z" fill="#280609"/>
<path d="M21.6095 11.4241H22.9813V12.7875H21.6095V11.4241Z" fill="#280609"/>
<path d="M22.9813 11.4241H24.3532V12.7875H22.9813V11.4241Z" fill="#280609"/>
<path d="M54.2246 11.4241H55.5964V12.7875H54.2246V11.4241Z" fill="#280609"/>
<path d="M55.5964 11.4241H56.9683V12.7875H55.5964V11.4241Z" fill="#280609"/>
<path d="M56.9683 11.4241H58.3401V12.7875H56.9683V11.4241Z" fill="#280609"/>
<path d="M58.3401 11.4241H59.7119V12.7875H58.3401V11.4241Z" fill="#280609"/>
<path d="M67.9432 11.4241H69.3151V12.7875H67.9432V11.4241Z" fill="#280609"/>
<path d="M69.3151 11.4241H70.687V12.7875H69.3151V11.4241Z" fill="#280609"/>
<path d="M70.687 11.4241H72.0588V12.7875H70.687V11.4241Z" fill="#280609"/>
<path d="M5.14709 12.7875H6.51896V14.1509H5.14709V12.7875Z" fill="#280609"/>
<path d="M6.51892 12.7875H7.8908V14.1509H6.51892V12.7875Z" fill="#280609"/>
<path d="M7.89087 12.7875H9.26271V14.1509H7.89087V12.7875Z" fill="#280609"/>
<path d="M9.2627 12.7875H10.6346V14.1509H9.2627V12.7875Z" fill="#280609"/>
<path d="M20.2375 12.7875H21.6095V14.1509H20.2375V12.7875Z" fill="#280609"/>
<path d="M21.6095 12.7875H22.9813V14.1509H21.6095V12.7875Z" fill="#280609"/>
<path d="M22.9813 12.7875H24.3532V14.1509H22.9813V12.7875Z" fill="#280609"/>
<path d="M33.6465 12.7875H35.0183V14.1509H33.6465V12.7875Z" fill="#280609"/>
<path d="M35.0184 12.7875H36.3903V14.1509H35.0184V12.7875Z" fill="#280609"/>
<path d="M36.3903 12.7875H37.7622V14.1509H36.3903V12.7875Z" fill="#280609"/>
<path d="M43.2495 12.7875H44.6214V14.1509H43.2495V12.7875Z" fill="#280609"/>
<path d="M44.6215 12.7875H45.9933V14.1509H44.6215V12.7875Z" fill="#280609"/>
<path d="M45.9933 12.7875H47.3652V14.1509H45.9933V12.7875Z" fill="#280609"/>
<path d="M51.4808 12.7875H52.8527V14.1509H51.4808V12.7875Z" fill="#280609"/>
<path d="M52.8527 12.7875H54.2246V14.1509H52.8527V12.7875Z" fill="#280609"/>
<path d="M54.2246 12.7875H55.5964V14.1509H54.2246V12.7875Z" fill="#280609"/>
<path d="M55.5964 12.7875H56.9683V14.1509H55.5964V12.7875Z" fill="#280609"/>
<path d="M56.9683 12.7875H58.3401V14.1509H56.9683V12.7875Z" fill="#280609"/>
<path d="M58.3401 12.7875H59.7119V14.1509H58.3401V12.7875Z" fill="#280609"/>
<path d="M59.712 12.7875H61.0839V14.1509H59.712V12.7875Z" fill="#280609"/>
<path d="M61.0839 12.7875H62.4557V14.1509H61.0839V12.7875Z" fill="#280609"/>
<path d="M67.9432 12.7875H69.3151V14.1509H67.9432V12.7875Z" fill="#280609"/>
<path d="M69.3151 12.7875H70.687V14.1509H69.3151V12.7875Z" fill="#280609"/>
<path d="M70.687 12.7875H72.0588V14.1509H70.687V12.7875Z" fill="#280609"/>
<path d="M5.14709 14.1509H6.51896V15.5143H5.14709V14.1509Z" fill="#280609"/>
<path d="M6.51892 14.1509H7.8908V15.5143H6.51892V14.1509Z" fill="#280609"/>
<path d="M7.89087 14.1509H9.26271V15.5143H7.89087V14.1509Z" fill="#280609"/>
<path d="M9.2627 14.1509H10.6346V15.5143H9.2627V14.1509Z" fill="#280609"/>
<path d="M20.2375 14.1509H21.6095V15.5143H20.2375V14.1509Z" fill="#280609"/>
<path d="M21.6095 14.1509H22.9813V15.5143H21.6095V14.1509Z" fill="#280609"/>
<path d="M22.9813 14.1509H24.3532V15.5143H22.9813V14.1509Z" fill="#280609"/>
<path d="M35.0184 14.1509H36.3903V15.5143H35.0184V14.1509Z" fill="#280609"/>
<path d="M36.3903 14.1509H37.7622V15.5143H36.3903V14.1509Z" fill="#280609"/>
<path d="M37.7621 14.1509H39.1339V15.5143H37.7621V14.1509Z" fill="#280609"/>
<path d="M41.8777 14.1509H43.2495V15.5143H41.8777V14.1509Z" fill="#280609"/>
<path d="M43.2495 14.1509H44.6214V15.5143H43.2495V14.1509Z" fill="#280609"/>
<path d="M44.6215 14.1509H45.9933V15.5143H44.6215V14.1509Z" fill="#280609"/>
<path d="M50.1089 14.1509H51.4808V15.5143H50.1089V14.1509Z" fill="#280609"/>
<path d="M51.4808 14.1509H52.8527V15.5143H51.4808V14.1509Z" fill="#280609"/>
<path d="M52.8527 14.1509H54.2246V15.5143H52.8527V14.1509Z" fill="#280609"/>
<path d="M54.2246 14.1509H55.5964V15.5143H54.2246V14.1509Z" fill="#280609"/>
<path d="M55.5964 14.1509H56.9683V15.5143H55.5964V14.1509Z" fill="#280609"/>
<path d="M56.9683 14.1509H58.3401V15.5143H56.9683V14.1509Z" fill="#280609"/>
<path d="M58.3401 14.1509H59.7119V15.5143H58.3401V14.1509Z" fill="#280609"/>
<path d="M59.712 14.1509H61.0839V15.5143H59.712V14.1509Z" fill="#280609"/>
<path d="M61.0839 14.1509H62.4557V15.5143H61.0839V14.1509Z" fill="#280609"/>
<path d="M62.4557 14.1509H63.8275V15.5143H62.4557V14.1509Z" fill="#280609"/>
<path d="M67.9432 14.1509H69.3151V15.5143H67.9432V14.1509Z" fill="#280609"/>
<path d="M69.3151 14.1509H70.687V15.5143H69.3151V14.1509Z" fill="#280609"/>
<path d="M70.687 14.1509H72.0588V15.5143H70.687V14.1509Z" fill="#280609"/>
<path d="M5.14709 15.5142H6.51896V16.8775H5.14709V15.5142Z" fill="#280609"/>
<path d="M6.51892 15.5142H7.8908V16.8775H6.51892V15.5142Z" fill="#280609"/>
<path d="M7.89087 15.5142H9.26271V16.8775H7.89087V15.5142Z" fill="#280609"/>
<path d="M9.2627 15.5142H10.6346V16.8775H9.2627V15.5142Z" fill="#280609"/>
<path d="M20.2375 15.5142H21.6095V16.8775H20.2375V15.5142Z" fill="#280609"/>
<path d="M21.6095 15.5142H22.9813V16.8775H21.6095V15.5142Z" fill="#280609"/>
<path d="M22.9813 15.5142H24.3532V16.8775H22.9813V15.5142Z" fill="#280609"/>
<path d="M35.0184 15.5142H36.3903V16.8775H35.0184V15.5142Z" fill="#280609"/>
<path d="M36.3903 15.5142H37.7622V16.8775H36.3903V15.5142Z" fill="#280609"/>
<path d="M37.7621 15.5142H39.1339V16.8775H37.7621V15.5142Z" fill="#280609"/>
<path d="M41.8777 15.5142H43.2495V16.8775H41.8777V15.5142Z" fill="#280609"/>
<path d="M43.2495 15.5142H44.6214V16.8775H43.2495V15.5142Z" fill="#280609"/>
<path d="M44.6215 15.5142H45.9933V16.8775H44.6215V15.5142Z" fill="#280609"/>
<path d="M50.1089 15.5142H51.4808V16.8775H50.1089V15.5142Z" fill="#280609"/>
<path d="M51.4808 15.5142H52.8527V16.8775H51.4808V15.5142Z" fill="#280609"/>
<path d="M52.8527 15.5142H54.2246V16.8775H52.8527V15.5142Z" fill="#280609"/>
<path d="M61.0839 15.5142H62.4557V16.8775H61.0839V15.5142Z" fill="#280609"/>
<path d="M62.4557 15.5142H63.8275V16.8775H62.4557V15.5142Z" fill="#280609"/>
<path d="M63.8275 15.5142H65.1994V16.8775H63.8275V15.5142Z" fill="#280609"/>
<path d="M67.9432 15.5142H69.3151V16.8775H67.9432V15.5142Z" fill="#280609"/>
<path d="M69.3151 15.5142H70.687V16.8775H69.3151V15.5142Z" fill="#280609"/>
<path d="M70.687 15.5142H72.0588V16.8775H70.687V15.5142Z" fill="#280609"/>
<path d="M5.14709 16.8776H6.51896V18.2409H5.14709V16.8776Z" fill="#280609"/>
<path d="M6.51892 16.8776H7.8908V18.2409H6.51892V16.8776Z" fill="#280609"/>
<path d="M7.89087 16.8776H9.26271V18.2409H7.89087V16.8776Z" fill="#280609"/>
<path d="M9.2627 16.8776H10.6346V18.2409H9.2627V16.8776Z" fill="#280609"/>
<path d="M18.8657 16.8776H20.2376V18.2409H18.8657V16.8776Z" fill="#280609"/>
<path d="M20.2375 16.8776H21.6095V18.2409H20.2375V16.8776Z" fill="#280609"/>
<path d="M21.6095 16.8776H22.9813V18.2409H21.6095V16.8776Z" fill="#280609"/>
<path d="M22.9813 16.8776H24.3532V18.2409H22.9813V16.8776Z" fill="#280609"/>
<path d="M36.3903 16.8776H37.7622V18.2409H36.3903V16.8776Z" fill="#280609"/>
<path d="M37.7621 16.8776H39.1339V18.2409H37.7621V16.8776Z" fill="#280609"/>
<path d="M39.1339 16.8776H40.5058V18.2409H39.1339V16.8776Z" fill="#280609"/>
<path d="M40.5059 16.8776H41.8777V18.2409H40.5059V16.8776Z" fill="#280609"/>
<path d="M41.8777 16.8776H43.2495V18.2409H41.8777V16.8776Z" fill="#280609"/>
<path d="M43.2495 16.8776H44.6214V18.2409H43.2495V16.8776Z" fill="#280609"/>
<path d="M50.1089 16.8776H51.4808V18.2409H50.1089V16.8776Z" fill="#280609"/>
<path d="M51.4808 16.8776H52.8527V18.2409H51.4808V16.8776Z" fill="#280609"/>
<path d="M61.0839 16.8776H62.4557V18.2409H61.0839V16.8776Z" fill="#280609"/>
<path d="M62.4557 16.8776H63.8275V18.2409H62.4557V16.8776Z" fill="#280609"/>
<path d="M63.8275 16.8776H65.1994V18.2409H63.8275V16.8776Z" fill="#280609"/>
<path d="M67.9432 16.8776H69.3151V18.2409H67.9432V16.8776Z" fill="#280609"/>
<path d="M69.3151 16.8776H70.687V18.2409H69.3151V16.8776Z" fill="#280609"/>
<path d="M70.687 16.8776H72.0588V18.2409H70.687V16.8776Z" fill="#280609"/>
<path d="M5.14709 18.241H6.51896V19.6043H5.14709V18.241Z" fill="#280609"/>
<path d="M6.51892 18.241H7.8908V19.6043H6.51892V18.241Z" fill="#280609"/>
<path d="M7.89087 18.241H9.26271V19.6043H7.89087V18.241Z" fill="#280609"/>
<path d="M9.2627 18.241H10.6346V19.6043H9.2627V18.241Z" fill="#280609"/>
<path d="M10.6345 18.241H12.0064V19.6043H10.6345V18.241Z" fill="#280609"/>
<path d="M12.0063 18.241H13.3782V19.6043H12.0063V18.241Z" fill="#280609"/>
<path d="M13.3783 18.241H14.7502V19.6043H13.3783V18.241Z" fill="#280609"/>
<path d="M14.7501 18.241H16.122V19.6043H14.7501V18.241Z" fill="#280609"/>
<path d="M16.1219 18.241H17.4939V19.6043H16.1219V18.241Z" fill="#280609"/>
<path d="M17.4939 18.241H18.8657V19.6043H17.4939V18.241Z" fill="#280609"/>
<path d="M18.8657 18.241H20.2376V19.6043H18.8657V18.241Z" fill="#280609"/>
<path d="M20.2375 18.241H21.6095V19.6043H20.2375V18.241Z" fill="#280609"/>
<path d="M21.6095 18.241H22.9813V19.6043H21.6095V18.241Z" fill="#280609"/>
<path d="M37.7621 18.241H39.1339V19.6043H37.7621V18.241Z" fill="#280609"/>
<path d="M39.1339 18.241H40.5058V19.6043H39.1339V18.241Z" fill="#280609"/>
<path d="M40.5059 18.241H41.8777V19.6043H40.5059V18.241Z" fill="#280609"/>
<path d="M41.8777 18.241H43.2495V19.6043H41.8777V18.241Z" fill="#280609"/>
<path d="M50.1089 18.241H51.4808V19.6043H50.1089V18.241Z" fill="#280609"/>
<path d="M51.4808 18.241H52.8527V19.6043H51.4808V18.241Z" fill="#280609"/>
<path d="M52.8527 18.241H54.2246V19.6043H52.8527V18.241Z" fill="#280609"/>
<path d="M54.2246 18.241H55.5964V19.6043H54.2246V18.241Z" fill="#280609"/>
<path d="M55.5964 18.241H56.9683V19.6043H55.5964V18.241Z" fill="#280609"/>
<path d="M56.9683 18.241H58.3401V19.6043H56.9683V18.241Z" fill="#280609"/>
<path d="M58.3401 18.241H59.7119V19.6043H58.3401V18.241Z" fill="#280609"/>
<path d="M59.712 18.241H61.0839V19.6043H59.712V18.241Z" fill="#280609"/>
<path d="M61.0839 18.241H62.4557V19.6043H61.0839V18.241Z" fill="#280609"/>
<path d="M62.4557 18.241H63.8275V19.6043H62.4557V18.241Z" fill="#280609"/>
<path d="M63.8275 18.241H65.1994V19.6043H63.8275V18.241Z" fill="#280609"/>
<path d="M67.9432 18.241H69.3151V19.6043H67.9432V18.241Z" fill="#280609"/>
<path d="M69.3151 18.241H70.687V19.6043H69.3151V18.241Z" fill="#280609"/>
<path d="M70.687 18.241H72.0588V19.6043H70.687V18.241Z" fill="#280609"/>
<path d="M5.14709 19.6044H6.51896V20.9677H5.14709V19.6044Z" fill="#280609"/>
<path d="M6.51892 19.6044H7.8908V20.9677H6.51892V19.6044Z" fill="#280609"/>
<path d="M7.89087 19.6044H9.26271V20.9677H7.89087V19.6044Z" fill="#280609"/>
<path d="M9.2627 19.6044H10.6346V20.9677H9.2627V19.6044Z" fill="#280609"/>
<path d="M10.6345 19.6044H12.0064V20.9677H10.6345V19.6044Z" fill="#280609"/>
<path d="M12.0063 19.6044H13.3782V20.9677H12.0063V19.6044Z" fill="#280609"/>
<path d="M13.3783 19.6044H14.7502V20.9677H13.3783V19.6044Z" fill="#280609"/>
<path d="M14.7501 19.6044H16.122V20.9677H14.7501V19.6044Z" fill="#280609"/>
<path d="M16.1219 19.6044H17.4939V20.9677H16.1219V19.6044Z" fill="#280609"/>
<path d="M17.4939 19.6044H18.8657V20.9677H17.4939V19.6044Z" fill="#280609"/>
<path d="M18.8657 19.6044H20.2376V20.9677H18.8657V19.6044Z" fill="#280609"/>
<path d="M20.2375 19.6044H21.6095V20.9677H20.2375V19.6044Z" fill="#280609"/>
<path d="M21.6095 19.6044H22.9813V20.9677H21.6095V19.6044Z" fill="#280609"/>
<path d="M37.7621 19.6044H39.1339V20.9677H37.7621V19.6044Z" fill="#280609"/>
<path d="M39.1339 19.6044H40.5058V20.9677H39.1339V19.6044Z" fill="#280609"/>
<path d="M40.5059 19.6044H41.8777V20.9677H40.5059V19.6044Z" fill="#280609"/>
<path d="M41.8777 19.6044H43.2495V20.9677H41.8777V19.6044Z" fill="#280609"/>
<path d="M48.7371 19.6044H50.1089V20.9677H48.7371V19.6044Z" fill="#280609"/>
<path d="M50.1089 19.6044H51.4808V20.9677H50.1089V19.6044Z" fill="#280609"/>
<path d="M51.4808 19.6044H52.8527V20.9677H51.4808V19.6044Z" fill="#280609"/>
<path d="M52.8527 19.6044H54.2246V20.9677H52.8527V19.6044Z" fill="#280609"/>
<path d="M54.2246 19.6044H55.5964V20.9677H54.2246V19.6044Z" fill="#280609"/>
<path d="M55.5964 19.6044H56.9683V20.9677H55.5964V19.6044Z" fill="#280609"/>
<path d="M56.9683 19.6044H58.3401V20.9677H56.9683V19.6044Z" fill="#280609"/>
<path d="M58.3401 19.6044H59.7119V20.9677H58.3401V19.6044Z" fill="#280609"/>
<path d="M59.712 19.6044H61.0839V20.9677H59.712V19.6044Z" fill="#280609"/>
<path d="M61.0839 19.6044H62.4557V20.9677H61.0839V19.6044Z" fill="#280609"/>
<path d="M62.4557 19.6044H63.8275V20.9677H62.4557V19.6044Z" fill="#280609"/>
<path d="M63.8275 19.6044H65.1994V20.9677H63.8275V19.6044Z" fill="#280609"/>
<path d="M67.9432 19.6044H69.3151V20.9677H67.9432V19.6044Z" fill="#280609"/>
<path d="M69.3151 19.6044H70.687V20.9677H69.3151V19.6044Z" fill="#280609"/>
<path d="M70.687 19.6044H72.0588V20.9677H70.687V19.6044Z" fill="#280609"/>
<path d="M5.14709 20.9677H6.51896V22.331H5.14709V20.9677Z" fill="#280609"/>
<path d="M6.51892 20.9677H7.8908V22.331H6.51892V20.9677Z" fill="#280609"/>
<path d="M7.89087 20.9677H9.26271V22.331H7.89087V20.9677Z" fill="#280609"/>
<path d="M9.2627 20.9677H10.6346V22.331H9.2627V20.9677Z" fill="#280609"/>
<path d="M10.6345 20.9677H12.0064V22.331H10.6345V20.9677Z" fill="#280609"/>
<path d="M12.0063 20.9677H13.3782V22.331H12.0063V20.9677Z" fill="#280609"/>
<path d="M13.3783 20.9677H14.7502V22.331H13.3783V20.9677Z" fill="#280609"/>
<path d="M14.7501 20.9677H16.122V22.331H14.7501V20.9677Z" fill="#280609"/>
<path d="M16.1219 20.9677H17.4939V22.331H16.1219V20.9677Z" fill="#280609"/>
<path d="M17.4939 20.9677H18.8657V22.331H17.4939V20.9677Z" fill="#280609"/>
<path d="M18.8657 20.9677H20.2376V22.331H18.8657V20.9677Z" fill="#280609"/>
<path d="M36.3903 20.9677H37.7622V22.331H36.3903V20.9677Z" fill="#280609"/>
<path d="M37.7621 20.9677H39.1339V22.331H37.7621V20.9677Z" fill="#280609"/>
<path d="M39.1339 20.9677H40.5058V22.331H39.1339V20.9677Z" fill="#280609"/>
<path d="M40.5059 20.9677H41.8777V22.331H40.5059V20.9677Z" fill="#280609"/>
<path d="M41.8777 20.9677H43.2495V22.331H41.8777V20.9677Z" fill="#280609"/>
<path d="M43.2495 20.9677H44.6214V22.331H43.2495V20.9677Z" fill="#280609"/>
<path d="M50.1089 20.9677H51.4808V22.331H50.1089V20.9677Z" fill="#280609"/>
<path d="M51.4808 20.9677H52.8527V22.331H51.4808V20.9677Z" fill="#280609"/>
<path d="M67.9432 20.9677H69.3151V22.331H67.9432V20.9677Z" fill="#280609"/>
<path d="M69.3151 20.9677H70.687V22.331H69.3151V20.9677Z" fill="#280609"/>
<path d="M70.687 20.9677H72.0588V22.331H70.687V20.9677Z" fill="#280609"/>
<path d="M5.14709 22.3311H6.51896V23.6944H5.14709V22.3311Z" fill="#280609"/>
<path d="M6.51892 22.3311H7.8908V23.6944H6.51892V22.3311Z" fill="#280609"/>
<path d="M7.89087 22.3311H9.26271V23.6944H7.89087V22.3311Z" fill="#280609"/>
<path d="M9.2627 22.3311H10.6346V23.6944H9.2627V22.3311Z" fill="#280609"/>
<path d="M35.0184 22.3311H36.3903V23.6944H35.0184V22.3311Z" fill="#280609"/>
<path d="M36.3903 22.3311H37.7622V23.6944H36.3903V22.3311Z" fill="#280609"/>
<path d="M37.7621 22.3311H39.1339V23.6944H37.7621V22.3311Z" fill="#280609"/>
<path d="M41.8777 22.3311H43.2495V23.6944H41.8777V22.3311Z" fill="#280609"/>
<path d="M43.2495 22.3311H44.6214V23.6944H43.2495V22.3311Z" fill="#280609"/>
<path d="M44.6215 22.3311H45.9933V23.6944H44.6215V22.3311Z" fill="#280609"/>
<path d="M50.1089 22.3311H51.4808V23.6944H50.1089V22.3311Z" fill="#280609"/>
<path d="M51.4808 22.3311H52.8527V23.6944H51.4808V22.3311Z" fill="#280609"/>
<path d="M52.8527 22.3311H54.2246V23.6944H52.8527V22.3311Z" fill="#280609"/>
<path d="M61.0839 22.3311H62.4557V23.6944H61.0839V22.3311Z" fill="#280609"/>
<path d="M62.4557 22.3311H63.8275V23.6944H62.4557V22.3311Z" fill="#280609"/>
<path d="M63.8275 22.3311H65.1994V23.6944H63.8275V22.3311Z" fill="#280609"/>
<path d="M67.9432 22.3311H69.3151V23.6944H67.9432V22.3311Z" fill="#280609"/>
<path d="M69.3151 22.3311H70.687V23.6944H69.3151V22.3311Z" fill="#280609"/>
<path d="M70.687 22.3311H72.0588V23.6944H70.687V22.3311Z" fill="#280609"/>
<path d="M5.14709 23.6945H6.51896V25.0578H5.14709V23.6945Z" fill="#280609"/>
<path d="M6.51892 23.6945H7.8908V25.0578H6.51892V23.6945Z" fill="#280609"/>
<path d="M7.89087 23.6945H9.26271V25.0578H7.89087V23.6945Z" fill="#280609"/>
<path d="M9.2627 23.6945H10.6346V25.0578H9.2627V23.6945Z" fill="#280609"/>
<path d="M35.0184 23.6945H36.3903V25.0578H35.0184V23.6945Z" fill="#280609"/>
<path d="M36.3903 23.6945H37.7622V25.0578H36.3903V23.6945Z" fill="#280609"/>
<path d="M37.7621 23.6945H39.1339V25.0578H37.7621V23.6945Z" fill="#280609"/>
<path d="M41.8777 23.6945H43.2495V25.0578H41.8777V23.6945Z" fill="#280609"/>
<path d="M43.2495 23.6945H44.6214V25.0578H43.2495V23.6945Z" fill="#280609"/>
<path d="M44.6215 23.6945H45.9933V25.0578H44.6215V23.6945Z" fill="#280609"/>
<path d="M50.1089 23.6945H51.4808V25.0578H50.1089V23.6945Z" fill="#280609"/>
<path d="M51.4808 23.6945H52.8527V25.0578H51.4808V23.6945Z" fill="#280609"/>
<path d="M52.8527 23.6945H54.2246V25.0578H52.8527V23.6945Z" fill="#280609"/>
<path d="M54.2246 23.6945H55.5964V25.0578H54.2246V23.6945Z" fill="#280609"/>
<path d="M59.712 23.6945H61.0839V25.0578H59.712V23.6945Z" fill="#280609"/>
<path d="M61.0839 23.6945H62.4557V25.0578H61.0839V23.6945Z" fill="#280609"/>
<path d="M62.4557 23.6945H63.8275V25.0578H62.4557V23.6945Z" fill="#280609"/>
<path d="M67.9432 23.6945H69.3151V25.0578H67.9432V23.6945Z" fill="#280609"/>
<path d="M69.3151 23.6945H70.687V25.0578H69.3151V23.6945Z" fill="#280609"/>
<path d="M70.687 23.6945H72.0588V25.0578H70.687V23.6945Z" fill="#280609"/>
<path d="M5.14709 25.0579H6.51896V26.4212H5.14709V25.0579Z" fill="#280609"/>
<path d="M6.51892 25.0579H7.8908V26.4212H6.51892V25.0579Z" fill="#280609"/>
<path d="M7.89087 25.0579H9.26271V26.4212H7.89087V25.0579Z" fill="#280609"/>
<path d="M9.2627 25.0579H10.6346V26.4212H9.2627V25.0579Z" fill="#280609"/>
<path d="M33.6465 25.0579H35.0183V26.4212H33.6465V25.0579Z" fill="#280609"/>
<path d="M35.0184 25.0579H36.3903V26.4212H35.0184V25.0579Z" fill="#280609"/>
<path d="M36.3903 25.0579H37.7622V26.4212H36.3903V25.0579Z" fill="#280609"/>
<path d="M43.2495 25.0579H44.6214V26.4212H43.2495V25.0579Z" fill="#280609"/>
<path d="M44.6215 25.0579H45.9933V26.4212H44.6215V25.0579Z" fill="#280609"/>
<path d="M45.9933 25.0579H47.3652V26.4212H45.9933V25.0579Z" fill="#280609"/>
<path d="M51.4808 25.0579H52.8527V26.4212H51.4808V25.0579Z" fill="#280609"/>
<path d="M52.8527 25.0579H54.2246V26.4212H52.8527V25.0579Z" fill="#280609"/>
<path d="M54.2246 25.0579H55.5964V26.4212H54.2246V25.0579Z" fill="#280609"/>
<path d="M55.5964 25.0579H56.9683V26.4212H55.5964V25.0579Z" fill="#280609"/>
<path d="M56.9683 25.0579H58.3401V26.4212H56.9683V25.0579Z" fill="#280609"/>
<path d="M58.3401 25.0579H59.7119V26.4212H58.3401V25.0579Z" fill="#280609"/>
<path d="M59.712 25.0579H61.0839V26.4212H59.712V25.0579Z" fill="#280609"/>
<path d="M61.0839 25.0579H62.4557V26.4212H61.0839V25.0579Z" fill="#280609"/>
<path d="M62.4557 25.0579H63.8275V26.4212H62.4557V25.0579Z" fill="#280609"/>
<path d="M67.9432 25.0579H69.3151V26.4212H67.9432V25.0579Z" fill="#280609"/>
<path d="M69.3151 25.0579H70.687V26.4212H69.3151V25.0579Z" fill="#280609"/>
<path d="M70.687 25.0579H72.0588V26.4212H70.687V25.0579Z" fill="#280609"/>
<path d="M5.14709 26.4211H6.51896V27.7845H5.14709V26.4211Z" fill="#280609"/>
<path d="M6.51892 26.4211H7.8908V27.7845H6.51892V26.4211Z" fill="#280609"/>
<path d="M7.89087 26.4211H9.26271V27.7845H7.89087V26.4211Z" fill="#280609"/>
<path d="M9.2627 26.4211H10.6346V27.7845H9.2627V26.4211Z" fill="#280609"/>
<path d="M32.2747 26.4211H33.6466V27.7845H32.2747V26.4211Z" fill="#280609"/>
<path d="M33.6465 26.4211H35.0183V27.7845H33.6465V26.4211Z" fill="#280609"/>
<path d="M35.0184 26.4211H36.3903V27.7845H35.0184V26.4211Z" fill="#280609"/>
<path d="M44.6215 26.4211H45.9933V27.7845H44.6215V26.4211Z" fill="#280609"/>
<path d="M45.9933 26.4211H47.3652V27.7845H45.9933V26.4211Z" fill="#280609"/>
<path d="M47.3652 26.4211H48.7371V27.7845H47.3652V26.4211Z" fill="#280609"/>
<path d="M52.8527 26.4211H54.2246V27.7845H52.8527V26.4211Z" fill="#280609"/>
<path d="M54.2246 26.4211H55.5964V27.7845H54.2246V26.4211Z" fill="#280609"/>
<path d="M55.5964 26.4211H56.9683V27.7845H55.5964V26.4211Z" fill="#280609"/>
<path d="M56.9683 26.4211H58.3401V27.7845H56.9683V26.4211Z" fill="#280609"/>
<path d="M58.3401 26.4211H59.7119V27.7845H58.3401V26.4211Z" fill="#280609"/>
<path d="M59.712 26.4211H61.0839V27.7845H59.712V26.4211Z" fill="#280609"/>
<path d="M67.9432 26.4211H69.3151V27.7845H67.9432V26.4211Z" fill="#280609"/>
<path d="M69.3151 26.4211H70.687V27.7845H69.3151V26.4211Z" fill="#280609"/>
<path d="M70.687 26.4211H72.0588V27.7845H70.687V26.4211Z" fill="#280609"/>
<path d="M5.14705 1.55884H1.47058V5.59917M5.14705 31.7059H1.47058V27.6656" stroke="#FD1524" stroke-width="2.5"/>
<path d="M72.7941 31.7059H76.4705V27.6656M72.7941 1.55884H76.4705V5.59917" stroke="#FD1524" stroke-width="2.5"/>
<path d="M28.6765 0.0882568V33.9118" stroke="#FD1524" stroke-width="3.5"/>
</g>
<defs>
<clipPath id="clip0_1_10926">
<rect width="150" height="33.8235" fill="white" transform="translate(0 0.0882568)"/>
</clipPath>
</defs>
</svg>
